<?xml version="1.0" encoding="UTF-8"?>
<svg width="251px" height="45px" viewBox="0 0 251 45" version="1.1" xmlns="http://www.w3.org/2000/svg" xmlns:xlink="http://www.w3.org/1999/xlink">
    <!-- Generator: Sketch 50.2 (55047) - http://www.bohemiancoding.com/sketch -->
    <title>HVAlogo_International</title>
    <desc>Created with Sketch.</desc>
    <defs/>
    <g id="Page-1" stroke="none" stroke-width="1" fill="none" fill-rule="evenodd">
        <g id="HVAlogo_International" fill="#000000" fill-rule="nonzero">
            <path d="M24.1,10.9 C30.2,10.9 36,12.6 40.9,15.4 L46.2,6.4 C39.7,2.6 32.1,0.4 24.1,0.4 C16,0.4 8.5,2.6 2,6.4 L7.3,15.4 C12.2,12.6 18,10.9 24.1,10.9 Z" id="Shape"/>
            <path d="M29,15.9 C26.9,15.9 20.4,15.8 12,19.6 C10.9,20.1 10.2,20.5 10,20.2 C9.6,19.6 12.3,17.4 15.2,15.7 C16.2,15.1 16.8,14.6 16.6,14.1 C16.3,13.4 14.2,13.3 8.5,16.2 C5.6,17.8 2.9,19.9 0.7,22.3 L1.6,23.2 C2.5,22.2 3.5,21.3 4.5,20.4 C5.2,19.8 8.3,17.5 8.6,18.2 C8.7,18.5 8.5,18.9 7.4,20.4 C6.4,21.7 5.8,23 6.3,23.4 C6.8,23.8 7.3,23.6 8.6,22.8 C9.6,22.3 12.6,20.6 17.4,19.2 C22.2,17.8 23.4,18.3 23.5,18.7 C23.6,19.2 21.4,20 20.1,20.6 C19,21.2 15.1,23.4 13,25.1 C13,25.1 15,28.6 15,28.6 C17.2,27.3 25.4,25.2 26.3,26.7 C27.3,28.4 18.5,34.5 18.5,34.5 L24.1,44.1 C24.1,44.1 36.8,29.5 34.8,26.3 C32.8,23.1 25.1,23.7 22.1,24 C21.3,24.1 20.3,24.3 20.1,23.8 C19.9,23.3 20.1,21.5 30.4,19.1 C32.7,18.6 33.6,18.3 33.4,17.3 C33.3,16.6 31.2,15.9 29,15.9 Z" id="Shape"/>
            <g id="Group" transform="translate(55.000000, 6.000000)">
                <path d="M7.7,13.3 C8.5,13.3 9,13.3 9,12.8 C9,12.5 8.7,11.8 8.4,10.9 L7.9,9.7 L3.3,9.7 L2.8,10.8 C2.6,11.4 2.3,12.1 2.3,12.5 C2.3,13 2.7,13.2 3.3,13.3 L3.8,13.3 L3.8,13.8 L0,13.8 L0,13.3 C0.9,13.3 1.3,12.8 1.8,11.4 L5.3,3 C5.6,2.3 5.9,1.6 6.1,0.9 L7.7,0.9 C7.9,1.8 8.2,2.6 8.5,3.4 L11.8,12 C12,12.6 12.3,13.3 13,13.3 L13.4,13.3 L13.4,13.8 L7.7,13.8 L7.7,13.3 Z M5.7,4 L3.6,9.1 L7.7,9.1 L5.7,4 Z" id="Shape"/>
                <path d="M13.6,13.3 L14.2,13.3 C14.7,13.3 14.9,13.1 14.9,12.1 L14.9,6.6 C14.9,5.6 14.7,5.4 14.2,5.4 L13.6,5.4 L13.6,4.9 L15.5,4.9 C16.2,4.9 16.8,4.8 17.4,4.6 L17.4,6.2 C18.1,5.2 19,4.6 20.3,4.6 C21.5,4.6 22.4,5 22.7,6.2 C23.5,5.1 24.2,4.6 25.7,4.6 C27.5,4.6 28.3,5.7 28.3,7.1 L28.3,12.1 C28.3,13.1 28.5,13.3 29,13.3 L29.4,13.3 L29.4,13.8 L24.6,13.8 L24.6,13.3 L25,13.3 C25.5,13.3 25.7,13.1 25.7,12.1 L25.7,7.6 C25.7,6.7 25.7,5.7 24.6,5.7 C22.9,5.7 22.9,7.7 22.9,8.8 L22.9,12.1 C22.9,13.1 23.1,13.3 23.6,13.3 L24,13.3 L24,13.8 L19.2,13.8 L19.2,13.3 L19.6,13.3 C20.1,13.3 20.3,13.1 20.3,12.1 L20.3,7.6 C20.3,6.7 20.3,5.7 19.2,5.7 C17.5,5.7 17.5,7.7 17.5,8.8 L17.5,12.1 C17.5,13.1 17.7,13.3 18.2,13.3 L18.6,13.3 L18.6,13.8 L13.6,13.8 L13.6,13.3 Z" id="Shape"/>
                <path d="M30.5,10.9 L31.1,10.9 C31.5,12.4 32.3,13.5 34,13.5 C34.9,13.5 35.8,13 35.8,12.1 C35.8,11 34.9,10.7 33.2,10.3 C31.9,10 30.6,9.5 30.6,7.7 C30.6,5.6 32.2,4.6 34.1,4.6 C34.9,4.6 35.5,4.9 36.1,4.9 C36.6,4.9 36.9,4.8 37.1,4.6 L37.2,4.6 L37.2,7.5 L36.6,7.5 C36.4,6.3 35.5,5.2 34.2,5.2 C33.3,5.2 32.4,5.5 32.4,6.6 C32.4,7.5 32.9,7.6 34.9,8.1 C36.5,8.5 37.7,9 37.7,11 C37.7,13.1 35.9,14 34,14 C33.2,14 32.2,13.7 31.5,13.7 C31.1,13.7 30.8,13.9 30.6,14 L30.5,14 L30.5,10.9 Z" id="Shape"/>
                <path d="M44.5,5.4 L42.6,5.4 L42.6,11.2 C42.6,12.3 42.6,13.1 43.4,13.1 C44.1,13.1 44.2,12.4 44.2,11.8 L44.2,11.2 L44.9,11.2 L44.9,11.6 C44.9,13.4 44.2,14.2 42.6,14.2 C40.8,14.2 40.1,13.1 40.1,11.9 L40.1,5.5 L38.8,5.5 L38.8,5 C40.6,4.9 41.7,3.2 42.1,1.6 L42.6,1.6 L42.6,5 L44.5,5 L44.5,5.4 Z" id="Shape"/>
                <path d="M48.9,9.4 L48.9,9.8 C48.9,11.6 49.1,13.5 51.1,13.5 C52.7,13.5 53.6,12.2 53.6,10.8 L54.4,10.8 C54.2,13 52.8,14.2 50.5,14.2 C47.7,14.2 46.1,12.2 46.1,9.4 C46.1,6.6 47.7,4.6 50.5,4.6 C53.5,4.6 54.5,6.6 54.5,9.4 L48.9,9.4 Z M51.8,8.9 C51.8,7 51.8,5.3 50.5,5.3 C49,5.3 48.9,7.2 48.9,8.9 L51.8,8.9 Z" id="Shape"/>
                <path d="M59.6,12.1 C59.6,13.1 59.8,13.3 60.3,13.3 L61.1,13.3 L61.1,13.8 L55.7,13.8 L55.7,13.3 L56.3,13.3 C56.8,13.3 57,13.1 57,12.1 L57,6.6 C57,5.6 56.8,5.4 56.3,5.4 L55.7,5.4 L55.7,4.9 L57.6,4.9 C58.3,4.9 58.9,4.8 59.5,4.6 L59.5,6.6 L59.6,6.6 C60,5.7 60.8,4.7 62,4.7 C62.8,4.7 63.8,5.1 63.8,6.2 C63.8,7 63.2,7.5 62.3,7.5 C61.9,7.5 61.1,7.3 61.1,6.4 C61.1,6.1 61.1,6 60.9,6 C60.4,6 59.6,7.2 59.6,9.1 L59.6,12.1 Z" id="Shape"/>
                <path d="M70.8,12.5 C70.4,13.6 69.3,14.1 68.1,14.1 C65.6,14.1 64.7,11.5 64.7,9.4 C64.7,7.1 65.6,4.6 68.2,4.6 C69.3,4.6 70.2,5.1 70.7,6.1 L70.7,2.3 C70.7,1.4 70.7,1.1 70,1.1 L69.4,1.1 L69.4,0.6 L73.2,0.6 L73.2,12.2 C73.2,13.3 73.4,13.4 73.9,13.4 L74.5,13.4 L74.5,13.9 L70.7,13.9 L70.7,12.5 L70.8,12.5 Z M68.8,13.2 C70.6,13.2 70.6,10.3 70.6,9.1 C70.6,7.9 70.5,5.4 68.8,5.4 C67.4,5.4 67.4,8.2 67.4,9 C67.4,10 67.4,13.2 68.8,13.2 Z" id="Shape"/>
                <path d="M85.2,11.4 C85.2,12.6 85.2,14.2 83,14.2 C82.3,14.2 81.4,13.8 81.1,13 C80.6,13.9 79.5,14.2 78.5,14.2 C77,14.2 75.7,13.3 75.7,11.7 C75.7,9.4 78.3,8.6 80.2,8.6 C80.5,8.6 80.7,8.6 81,8.6 L81,6.7 C81,5.9 80.7,5.3 79.8,5.3 C79.4,5.3 78.6,5.4 78.6,5.8 C78.6,6 79,6.3 79,6.8 C79,7.6 78.4,8 77.7,8 C76.9,8 76.4,7.5 76.4,6.7 C76.4,5 78.7,4.6 80,4.6 C81.7,4.6 83.7,5 83.7,7.1 L83.7,12.4 C83.7,12.9 83.9,13.1 84.1,13.1 C84.7,13.1 84.7,12.2 84.7,11.3 L85.2,11.3 L85.2,11.4 Z M80.9,9.1 C80.7,9 80.5,9 80.4,9 C79,9 78.3,10 78.3,11.6 C78.3,12.4 78.6,13.2 79.5,13.2 C80,13.2 80.9,12.9 80.9,11.4 L80.9,9.1 Z" id="Shape"/>
                <path d="M85.8,13.3 L86.4,13.3 C86.9,13.3 87.1,13.1 87.1,12.1 L87.1,6.6 C87.1,5.6 86.9,5.4 86.4,5.4 L85.8,5.4 L85.8,4.9 L87.7,4.9 C88.4,4.9 89,4.8 89.6,4.6 L89.6,6.2 C90.3,5.2 91.2,4.6 92.5,4.6 C93.7,4.6 94.6,5 94.9,6.2 C95.7,5.1 96.4,4.6 97.9,4.6 C99.7,4.6 100.5,5.7 100.5,7.1 L100.5,12.1 C100.5,13.1 100.7,13.3 101.2,13.3 L101.6,13.3 L101.6,13.8 L96.8,13.8 L96.8,13.3 L97.2,13.3 C97.7,13.3 97.9,13.1 97.9,12.1 L97.9,7.6 C97.9,6.7 97.9,5.7 96.8,5.7 C95.1,5.7 95.1,7.7 95.1,8.8 L95.1,12.1 C95.1,13.1 95.3,13.3 95.8,13.3 L96.2,13.3 L96.2,13.8 L91.4,13.8 L91.4,13.3 L91.8,13.3 C92.3,13.3 92.5,13.1 92.5,12.1 L92.5,7.6 C92.5,6.7 92.5,5.7 91.4,5.7 C89.7,5.7 89.7,7.7 89.7,8.8 L89.7,12.1 C89.7,13.1 89.9,13.3 90.4,13.3 L90.8,13.3 L90.8,13.8 L85.8,13.8 L85.8,13.3 Z" id="Shape"/>
                <path d="M120.2,1.6 L119.7,1.6 C118.8,1.6 118.8,2.1 118.8,4.4 L118.8,9.8 C118.8,12.4 117.1,14.2 114.3,14.2 C111,14.2 109.3,12.4 109.3,9.8 L109.3,4.5 C109.3,2.2 109.3,1.7 108.4,1.7 L107.9,1.7 L107.9,1.2 L113.4,1.2 L113.4,1.7 L112.9,1.7 C112,1.7 112,2.2 112,4.5 L112,10.2 C112,12.6 113.3,13.5 114.8,13.5 C116.5,13.5 118,12.3 118,9.7 L118,4.6 C118,2.3 118,1.8 117.1,1.8 L116.6,1.8 L116.6,1.3 L120.1,1.3 L120.1,1.6 L120.2,1.6 Z" id="Shape"/>
                <path d="M120.9,13.3 L121.5,13.3 C122,13.3 122.2,13.1 122.2,12.1 L122.2,6.6 C122.2,5.6 122,5.4 121.5,5.4 L120.9,5.4 L120.9,4.9 L122.8,4.9 C123.5,4.9 124.1,4.8 124.7,4.6 L124.7,6.2 C125.4,5.2 126.3,4.6 127.6,4.6 C129.4,4.6 130.2,5.7 130.2,7.1 L130.2,12.1 C130.2,13.1 130.4,13.3 130.9,13.3 L131.3,13.3 L131.3,13.8 L126.5,13.8 L126.5,13.3 L126.9,13.3 C127.4,13.3 127.6,13.1 127.6,12.1 L127.6,7.6 C127.6,6.7 127.6,5.7 126.5,5.7 C124.8,5.7 124.8,7.7 124.8,8.8 L124.8,12.1 C124.8,13.1 125,13.3 125.5,13.3 L125.9,13.3 L125.9,13.8 L120.9,13.8 L120.9,13.3 Z" id="Shape"/>
                <path d="M132,13.3 L132.6,13.3 C133.1,13.3 133.3,13.1 133.3,12.1 L133.3,6.6 C133.3,5.6 133.1,5.4 132.6,5.4 L132,5.4 L132,4.9 L133.9,4.9 C134.6,4.9 135.5,4.8 136,4.6 C135.9,6 135.9,7.4 135.9,8.8 L135.9,12.1 C135.9,13.1 136.1,13.3 136.6,13.3 L137.2,13.3 L137.2,13.8 L132,13.8 L132,13.3 Z M134.6,0.5 C135.4,0.5 136.1,1.2 136.1,2 C136.1,2.8 135.4,3.5 134.6,3.5 C133.8,3.5 133.1,2.8 133.1,2 C133.1,1.2 133.8,0.5 134.6,0.5 Z" id="Shape"/>
                <path d="M146.9,5.4 C146.2,5.4 146,6 145.8,6.6 L143.6,11.9 C143.3,12.6 143.1,13.2 142.9,13.9 L141.7,13.9 C141.5,13.4 141.4,12.9 141.2,12.5 L138.8,6.5 C138.5,5.7 138.4,5.3 137.9,5.3 L137.6,5.3 L137.6,4.8 L142.5,4.8 L142.5,5.3 L141.9,5.3 C141.6,5.3 141.3,5.4 141.3,5.7 C141.3,5.8 141.4,6 141.5,6.3 L143.3,10.9 L145.1,6.4 C145.2,6.1 145.2,6 145.2,5.8 C145.2,5.5 144.9,5.3 144.6,5.3 L144.2,5.3 L144.2,4.8 L147,4.8 L147,5.4 L146.9,5.4 Z" id="Shape"/>
                <path d="M150.1,9.4 L150.1,9.8 C150.1,11.6 150.3,13.5 152.3,13.5 C153.9,13.5 154.8,12.2 154.8,10.8 L155.6,10.8 C155.4,13 154,14.2 151.7,14.2 C148.9,14.2 147.3,12.2 147.3,9.4 C147.3,6.6 148.9,4.6 151.7,4.6 C154.7,4.6 155.7,6.6 155.7,9.4 L150.1,9.4 Z M153,8.9 C153,7 153,5.3 151.7,5.3 C150.2,5.3 150.1,7.2 150.1,8.9 L153,8.9 Z" id="Shape"/>
                <path d="M160.6,12.1 C160.6,13.1 160.8,13.3 161.3,13.3 L162.1,13.3 L162.1,13.8 L156.7,13.8 L156.7,13.3 L157.3,13.3 C157.8,13.3 158,13.1 158,12.1 L158,6.6 C158,5.6 157.8,5.4 157.3,5.4 L156.7,5.4 L156.7,4.9 L158.6,4.9 C159.3,4.9 159.9,4.8 160.5,4.6 L160.5,6.6 L160.6,6.6 C161,5.7 161.8,4.7 163,4.7 C163.8,4.7 164.8,5.1 164.8,6.2 C164.8,7 164.2,7.5 163.3,7.5 C162.9,7.5 162.1,7.3 162.1,6.4 C162.1,6.1 162.1,6 161.9,6 C161.4,6 160.6,7.2 160.6,9.1 L160.6,12.1 Z" id="Shape"/>
                <path d="M165.7,10.9 L166.3,10.9 C166.7,12.4 167.5,13.5 169.2,13.5 C170.1,13.5 171,13 171,12.1 C171,11 170.1,10.7 168.4,10.3 C167.1,10 165.8,9.5 165.8,7.7 C165.8,5.6 167.4,4.6 169.3,4.6 C170.1,4.6 170.7,4.9 171.3,4.9 C171.8,4.9 172.1,4.8 172.3,4.6 L172.4,4.6 L172.4,7.5 L171.8,7.5 C171.6,6.3 170.7,5.2 169.4,5.2 C168.5,5.2 167.6,5.5 167.6,6.6 C167.6,7.5 168.1,7.6 170.1,8.1 C171.7,8.5 172.9,9 172.9,11 C172.9,13.1 171.1,14 169.3,14 C168.5,14 167.5,13.7 166.8,13.7 C166.4,13.7 166.1,13.9 165.9,14 L165.8,14 L165.8,10.9 L165.7,10.9 Z" id="Shape"/>
                <path d="M173.8,13.3 L174.4,13.3 C174.9,13.3 175.1,13.1 175.1,12.1 L175.1,6.6 C175.1,5.6 174.9,5.4 174.4,5.4 L173.8,5.4 L173.8,4.9 L175.7,4.9 C176.4,4.9 177.3,4.8 177.8,4.6 C177.7,6 177.7,7.4 177.7,8.8 L177.7,12.1 C177.7,13.1 177.9,13.3 178.4,13.3 L179,13.3 L179,13.8 L173.8,13.8 L173.8,13.3 Z M176.4,0.5 C177.2,0.5 177.9,1.2 177.9,2 C177.9,2.8 177.2,3.5 176.4,3.5 C175.6,3.5 174.9,2.8 174.9,2 C174.9,1.2 175.6,0.5 176.4,0.5 Z" id="Shape"/>
                <path d="M185.4,5.4 L183.5,5.4 L183.5,11.2 C183.5,12.3 183.5,13.1 184.3,13.1 C185,13.1 185.1,12.4 185.1,11.8 L185.1,11.2 L185.8,11.2 L185.8,11.6 C185.8,13.4 185.1,14.2 183.5,14.2 C181.7,14.2 181,13.1 181,11.9 L181,5.5 L179.7,5.5 L179.7,5 C181.5,4.9 182.6,3.2 183,1.6 L183.5,1.6 L183.5,5 L185.4,5 L185.4,5.4 Z" id="Shape"/>
                <path d="M195.7,5.4 C195,5.4 194.8,6 194.6,6.6 L191.1,15.5 C190.5,17.1 190,18 188.3,18 C187.4,18 186.5,17.3 186.5,16.4 C186.5,15.6 187,15.1 187.7,15.1 C188.5,15.1 188.8,15.6 188.8,16.2 C188.8,16.6 188.5,16.8 188.5,17.1 C188.5,17.3 188.6,17.4 188.8,17.4 C189.3,17.4 189.8,16.5 190.2,15.4 L190.6,14.2 L187.7,6.7 C187.5,6.3 187.3,5.4 186.7,5.4 L186.3,5.4 L186.3,4.9 L191.2,4.9 L191.2,5.4 L191,5.4 C190.6,5.4 190.2,5.4 190.2,5.8 C190.2,5.9 190.2,6 190.3,6.2 L192,10.8 L193.6,6.6 C193.7,6.3 193.8,6.1 193.8,5.9 C193.8,5.4 193.5,5.3 193.2,5.3 L192.8,5.3 L192.8,4.8 L195.7,4.8 L195.7,5.4 Z" id="Shape"/>
                <path d="M5.5,25.1 C8.3,25.1 9.9,27.1 9.9,29.9 C9.9,32.7 8.3,34.7 5.5,34.7 C2.7,34.7 1.1,32.7 1.1,29.9 C1,27.1 2.6,25.1 5.5,25.1 Z M5.5,34 C6.8,34 7.2,32.9 7.2,29.9 C7.2,26.4 6.4,25.8 5.5,25.8 C4.6,25.8 3.8,26.4 3.8,29.9 C3.7,33 4.2,34 5.5,34 Z" id="Shape"/>
                <path d="M12.3,25.9 L11,25.9 L11,25.4 L12.3,25.4 L12.3,24.6 C12.3,22.3 13.4,20.8 15.8,20.8 C17,20.8 18.6,21.3 18.6,22.7 C18.6,23.5 18.1,24 17.4,24 C16.7,24 16.2,23.6 16.2,22.9 C16.2,22.1 16.7,22.1 16.7,21.7 C16.7,21.4 16.3,21.3 16.1,21.3 C14.8,21.2 14.9,22.9 14.9,23.8 L14.9,25.4 L16.6,25.4 L16.6,25.9 L14.9,25.9 L14.9,32.6 C14.9,33.6 15.1,33.8 15.6,33.8 L16.6,33.8 L16.6,34.3 L11,34.3 L11,33.8 L11.6,33.8 C12.1,33.8 12.3,33.6 12.3,32.6 L12.3,25.9 Z" id="Shape"/>
                <path d="M29.9,33.9 C30.7,33.9 31.2,33.9 31.2,33.4 C31.2,33.1 30.9,32.4 30.6,31.5 L30.1,30.3 L25.5,30.3 L25,31.4 C24.7,32 24.5,32.7 24.5,33.1 C24.5,33.6 24.9,33.8 25.5,33.9 L26,33.9 L26,34.4 L22.1,34.4 L22.1,33.9 C23,33.9 23.3,33.4 23.9,32 L27.4,23.6 C27.7,22.9 28,22.2 28.2,21.5 L29.8,21.5 C30,22.4 30.3,23.2 30.6,24 L33.9,32.6 C34.1,33.2 34.4,33.9 35.1,33.9 L35.5,33.9 L35.5,34.4 L29.8,34.4 L29.8,33.9 L29.9,33.9 Z M27.9,24.5 L25.8,29.6 L29.9,29.6 L27.9,24.5 Z" id="Shape"/>
                <path d="M35.7,37.7 L36.3,37.7 C36.9,37.7 37,37.1 37,36.2 L37,28.4 C37,26.5 37.1,25.9 36.2,25.9 L35.8,25.9 L35.8,25.4 L37.4,25.4 C38.2,25.4 38.9,25.3 39.6,25.1 L39.6,26.8 C40.1,25.6 41.1,25.1 42.2,25.1 C44.8,25.1 45.7,27.6 45.7,29.9 C45.7,32.1 44.8,34.6 42.3,34.6 C41.2,34.6 40.1,34.1 39.7,33.2 L39.7,35.8 C39.7,37.3 39.7,37.8 40.4,37.8 L41,37.8 L41,38.3 L35.8,38.3 L35.8,37.7 L35.7,37.7 Z M41.5,33.8 C42.9,33.8 42.9,30.5 42.9,29.7 C42.9,28.8 42.9,26.1 41.5,26.1 C39.8,26.1 39.7,28.6 39.7,29.8 C39.7,30.9 39.7,33.8 41.5,33.8 Z" id="Shape"/>
                <path d="M46.7,37.7 L47.3,37.7 C47.9,37.7 48,37.1 48,36.2 L48,28.4 C48,26.5 48.1,25.9 47.2,25.9 L46.8,25.9 L46.8,25.4 L48.4,25.4 C49.2,25.4 49.9,25.3 50.6,25.1 L50.6,26.8 C51.1,25.6 52.1,25.1 53.2,25.1 C55.8,25.1 56.7,27.6 56.7,29.9 C56.7,32.1 55.8,34.6 53.3,34.6 C52.2,34.6 51.1,34.1 50.7,33.2 L50.7,35.8 C50.7,37.3 50.7,37.8 51.4,37.8 L52,37.8 L52,38.3 L46.8,38.3 L46.8,37.7 L46.7,37.7 Z M52.4,33.8 C53.8,33.8 53.8,30.5 53.8,29.7 C53.8,28.8 53.8,26.1 52.4,26.1 C50.7,26.1 50.6,28.6 50.6,29.8 C50.6,30.9 50.6,33.8 52.4,33.8 Z" id="Shape"/>
                <path d="M57.5,33.9 L58.1,33.9 C58.6,33.9 58.8,33.7 58.8,32.7 L58.8,22.8 C58.8,21.8 58.6,21.6 58.1,21.6 L57.5,21.6 L57.5,21.1 L61.4,21.1 L61.4,32.7 C61.4,33.7 61.6,33.9 62.1,33.9 L62.7,33.9 L62.7,34.4 L57.5,34.4 L57.5,33.9 Z" id="Shape"/>
                <path d="M63.2,33.9 L63.8,33.9 C64.3,33.9 64.5,33.7 64.5,32.7 L64.5,27.2 C64.5,26.2 64.3,26 63.8,26 L63.2,26 L63.2,25.5 L65.1,25.5 C65.8,25.5 66.7,25.4 67.2,25.2 C67.1,26.6 67.1,28 67.1,29.4 L67.1,32.7 C67.1,33.7 67.3,33.9 67.8,33.9 L68.4,33.9 L68.4,34.4 L63.2,34.4 L63.2,33.9 Z M65.8,21.1 C66.6,21.1 67.3,21.8 67.3,22.6 C67.3,23.4 66.6,24.1 65.8,24.1 C65,24.1 64.3,23.4 64.3,22.6 C64.3,21.7 65,21.1 65.8,21.1 Z" id="Shape"/>
                <path d="M72.1,29.9 L72.1,30.3 C72.1,32.1 72.3,34 74.3,34 C75.9,34 76.8,32.7 76.8,31.3 L77.6,31.3 C77.4,33.5 76,34.7 73.7,34.7 C70.9,34.7 69.3,32.7 69.3,29.9 C69.3,27.1 70.9,25.1 73.7,25.1 C76.7,25.1 77.7,27.1 77.7,29.9 L72.1,29.9 Z M75,29.4 C75,27.5 75,25.8 73.7,25.8 C72.2,25.8 72.1,27.7 72.1,29.4 L75,29.4 Z" id="Shape"/>
                <path d="M85.4,33.1 C85,34.2 83.9,34.7 82.7,34.7 C80.2,34.7 79.3,32.1 79.3,30 C79.3,27.7 80.2,25.2 82.8,25.2 C83.9,25.2 84.8,25.7 85.3,26.7 L85.3,22.9 C85.3,22 85.3,21.7 84.6,21.7 L84,21.7 L84,21.2 L87.8,21.2 L87.8,32.8 C87.8,33.9 88.1,34 88.5,34 L89.1,34 L89.1,34.5 L85.3,34.5 L85.3,33.1 L85.4,33.1 Z M83.4,33.8 C85.2,33.8 85.2,30.9 85.2,29.7 C85.2,28.5 85.1,26 83.4,26 C82,26 82,28.8 82,29.6 C82.1,30.5 82.1,33.8 83.4,33.8 Z" id="Shape"/>
                <path d="M95.9,31 L96.6,31 C96.6,32.8 98.2,34.1 100,34.1 C101.5,34.1 102.5,33.2 102.5,31.8 C102.5,28.5 95.8,30 95.8,25.3 C95.8,22.8 97.7,21.5 100,21.5 C101,21.5 102.1,22 102.7,22 C103,22 103.2,21.8 103.2,21.6 L103.8,21.6 L103.8,24.8 L103.1,24.8 C103,23.2 101.7,22.1 100.1,22.1 C98.9,22.1 97.6,22.7 97.6,24.1 C97.6,27.2 104.4,25.6 104.4,30.8 C104.4,33.3 102.3,34.8 100,34.8 C98.8,34.8 97.6,34.3 96.9,34.3 C96.6,34.3 96.5,34.4 96.4,34.7 L95.8,34.7 L95.8,31 L95.9,31 Z" id="Shape"/>
                <path d="M114,31.4 C113.8,33.6 112.5,34.7 110.3,34.7 C107.4,34.7 106.1,32.5 106.1,29.8 C106.1,26.4 108.5,25.1 110.7,25.1 C113.2,25.1 113.9,26.4 113.9,27.1 C113.9,28 113.5,28.6 112.5,28.6 C111.8,28.6 111.3,28.1 111.3,27.4 C111.3,26.9 111.5,26.8 111.5,26.6 C111.5,26.2 110.9,25.9 110.5,25.9 C109,25.9 108.9,28.1 108.9,30.2 C108.9,31.6 108.9,34.2 110.9,34.2 C112.5,34.2 113.2,33 113.3,31.5 L114,31.5 L114,31.4 Z" id="Shape"/>
                <path d="M114.9,33.9 L115.5,33.9 C116,33.9 116.2,33.7 116.2,32.7 L116.2,27.2 C116.2,26.2 116,26 115.5,26 L114.9,26 L114.9,25.5 L116.8,25.5 C117.5,25.5 118.4,25.4 118.9,25.2 C118.8,26.6 118.8,28 118.8,29.4 L118.8,32.7 C118.8,33.7 119,33.9 119.5,33.9 L120.1,33.9 L120.1,34.4 L114.9,34.4 L114.9,33.9 Z M117.5,21.1 C118.3,21.1 119,21.8 119,22.6 C119,23.4 118.3,24.1 117.5,24.1 C116.7,24.1 116,23.4 116,22.6 C116,21.7 116.7,21.1 117.5,21.1 Z" id="Shape"/>
                <path d="M123.8,29.9 L123.8,30.3 C123.8,32.1 124,34 126,34 C127.6,34 128.5,32.7 128.5,31.3 L129.3,31.3 C129.1,33.5 127.7,34.7 125.4,34.7 C122.6,34.7 121,32.7 121,29.9 C121,27.1 122.6,25.1 125.4,25.1 C128.4,25.1 129.4,27.1 129.4,29.9 L123.8,29.9 Z M126.7,29.4 C126.7,27.5 126.7,25.8 125.4,25.8 C123.9,25.8 123.8,27.7 123.8,29.4 L126.7,29.4 Z" id="Shape"/>
                <path d="M130.6,33.9 L131.2,33.9 C131.7,33.9 131.9,33.7 131.9,32.7 L131.9,27.2 C131.9,26.2 131.7,26 131.2,26 L130.6,26 L130.6,25.5 L132.5,25.5 C133.2,25.5 133.8,25.4 134.4,25.2 L134.4,26.8 C135.1,25.8 136,25.2 137.3,25.2 C139.1,25.2 139.9,26.3 139.9,27.7 L139.9,32.7 C139.9,33.7 140.1,33.9 140.6,33.9 L141,33.9 L141,34.4 L136.2,34.4 L136.2,33.9 L136.6,33.9 C137.1,33.9 137.3,33.7 137.3,32.7 L137.3,28.2 C137.3,27.3 137.3,26.3 136.2,26.3 C134.5,26.3 134.5,28.3 134.5,29.4 L134.5,32.7 C134.5,33.7 134.7,33.9 135.2,33.9 L135.6,33.9 L135.6,34.4 L130.6,34.4 L130.6,33.9 Z" id="Shape"/>
                <path d="M149.9,31.4 C149.6,33.6 148.4,34.7 146.2,34.7 C143.3,34.7 142,32.5 142,29.8 C142,26.4 144.4,25.1 146.6,25.1 C149.1,25.1 149.8,26.4 149.8,27.1 C149.8,28 149.4,28.6 148.4,28.6 C147.7,28.6 147.2,28.1 147.2,27.4 C147.2,26.9 147.4,26.8 147.4,26.6 C147.4,26.2 146.8,25.9 146.4,25.9 C144.9,25.9 144.8,28.1 144.8,30.2 C144.8,31.6 144.8,34.2 146.8,34.2 C148.4,34.2 149.1,33 149.2,31.5 L149.9,31.5 L149.9,31.4 Z" id="Shape"/>
                <path d="M153.9,29.9 L153.9,30.3 C153.9,32.1 154.1,34 156.1,34 C157.7,34 158.6,32.7 158.6,31.3 L159.4,31.3 C159.2,33.5 157.8,34.7 155.5,34.7 C152.7,34.7 151.1,32.7 151.1,29.9 C151.1,27.1 152.7,25.1 155.5,25.1 C158.5,25.1 159.5,27.1 159.5,29.9 L153.9,29.9 Z M156.8,29.4 C156.8,27.5 156.8,25.8 155.5,25.8 C154,25.8 153.9,27.7 153.9,29.4 L156.8,29.4 Z" id="Shape"/>
                <path d="M161.1,31.4 L161.7,31.4 C162.1,32.9 162.9,34 164.6,34 C165.5,34 166.4,33.5 166.4,32.6 C166.4,31.5 165.5,31.2 163.8,30.8 C162.5,30.5 161.2,30 161.2,28.2 C161.2,26.1 162.8,25.1 164.7,25.1 C165.5,25.1 166.1,25.4 166.7,25.4 C167.2,25.4 167.5,25.3 167.7,25.1 L167.8,25.1 L167.8,28 L167.2,28 C167,26.8 166.1,25.7 164.8,25.7 C163.9,25.7 163,26 163,27.1 C163,28 163.5,28.1 165.5,28.6 C167.1,29 168.3,29.5 168.3,31.5 C168.3,33.6 166.5,34.5 164.7,34.5 C163.9,34.5 162.9,34.2 162.2,34.2 C161.8,34.2 161.5,34.4 161.3,34.5 L161.2,34.5 L161.2,31.4 L161.1,31.4 Z" id="Shape"/>
            </g>
        </g>
    </g>
</svg>