<svg width="545" height="646" xmlns="http://www.w3.org/2000/svg"><g stroke="#fff" stroke-width="1.69" fill="none" fill-rule="evenodd"><path d="M512.438 334.785c.034 79.847-19.596 158.815-71.628 221.098-16.955 20.292-52.33 63.054-82.613 59.972-21.902-2.222-28.315-27.645-47.51-33.998-30.28-10.022-45.547 12.328-59.74 33.48-42.91 63.958-59.602 10.363-95-24.787-23.37-23.205-57.395-31.467-83.232-51.438C12.575 492.625 1.412 406.29.85 335.732c-.34-42.917 18.932-53.192 43.578-81.482 26.457-30.373 38.502-68.965 52.42-105.912 9.2-24.44 25.814-87.123 58.575-91.275 21.42-2.716 45.277 23.25 65.767 27.93 54.392 12.422 103.03-21.635 146.45-48.483 27.33-16.897 68.22-50.01 101.895-27.63 25.652 17.05 25.837 51.455 41.797 75.01 12.033 17.757 32.248 24.775 32.208 48.112-.045 26.865-32.432 51.77-39.24 77.613-9.938 37.745 8.118 85.805 8.137 125.17zm-7.39 0c.032 79.682-18.82 159.287-70.3 221.945-16.115 19.617-49.753 60.962-79.063 57.22-20.103-2.57-28.257-28.813-47.283-34.095-28.71-7.967-44.292 15.142-57.43 34.72-43.665 65.082-61.467 8.297-95.204-25.9-21.736-22.025-52.945-31.452-76.848-50.647-57.085-45.846-69.395-122-63.71-190.948 3.27-39.642 29.73-53.455 46.125-85.822 18.515-36.558 29.145-75.84 41.807-114.63 7.546-23.108 21.43-81.343 52.518-87.448 20.703-4.06 44.218 21.855 65.07 26.637 54.448 12.488 103.285-21.674 146.778-48.464 27.357-16.85 68.162-49.706 101.745-27.175 25.405 17.044 26.22 51.3 41.08 75.314 10.372 16.755 28.334 25.663 27.12 47.445-1.425 25.53-31.08 48.95-38.805 73.108-12.286 38.407 6.382 88.378 6.4 128.74zm-7.393 0c.033 79.482-18.035 159.74-68.94 222.738-15.582 19.277-46.852 58.284-75.465 54.37-19.063-2.606-27.72-29.48-47.09-33.82-27.133-6.078-42.98 17.582-55.16 35.735-43.607 64.99-62.31 7.312-95.425-27.125-20.087-20.893-48.447-31.21-70.67-49.458-54.185-44.498-68.428-114.728-56.248-180.838 6.573-35.677 34.123-51.297 44.748-83.71 13.862-42.282 23.123-85.575 35.763-128.165 6.71-22.62 18.5-77.615 46.772-83.07 21.113-4.075 43.21 20.4 64.305 25.228 54.553 12.477 103.498-21.665 147.13-48.475 28.447-17.483 63.99-46.023 99.04-28.425 26.945 13.53 28.6 51.14 41.235 74.773 9.243 17.294 25.575 28.014 23.53 49.362-2.462 25.725-31.372 47.773-39.415 72.16-12.6 38.19 5.875 88.515 5.89 128.72zm-7.39 0c-.935 79.64-16.63 158.565-67.665 223.297-15.345 19.46-45.408 57.48-74.83 51.828-14.02-2.697-25.33-28.852-40.813-32.462-27.555-6.418-43.482 17.115-55.932 35.595-40.52 60.157-59.287 16.102-90.643-22.216-19.082-23.32-46.922-35.097-69.352-54.55-51.215-44.41-68.68-108.32-49.78-172.467 10.28-34.9 37.252-50.173 44.942-85.603 9.798-45.142 16.908-91.344 28.84-135.99 5.966-22.307 16.098-73.675 43.823-79.32 19.683-4.005 45.035 22.036 66.413 25.768 52.707 9.192 99.832-23.8 141.965-49.63C395.613 21.638 431.1-6.657 466 11.063c24.038 12.21 25.59 42.645 35.618 63.915 9.3 19.727 25.825 37.372 23.112 59.9-3.29 27.352-33.507 47.842-40.757 74.547-10.318 38.045 6.755 85.965 6.292 125.36zm-7.392 0c-.903 79.382-15.863 158.932-66.205 223.91-13.53 17.46-43.74 56.772-70.95 48.683-14.723-4.378-23.526-28.51-41.063-31.598-25.938-4.563-42.06 19.353-53.605 36.5-38.29 56.878-56.435 20.17-85.835-17.225-19.507-24.81-45.12-38.672-68.29-59.412-48.862-43.748-68.782-104.99-43.887-166.158 14.764-36.285 39.192-47.637 44.91-87.958 6.677-47.087 11.537-95.47 22.78-141.774 5.402-22.26 13.872-69.008 40.987-75.23 18.403-4.223 46.675 23.195 68.553 25.847 50.832 6.165 96.092-25.555 136.814-50.493 26.823-16.42 62.35-44.55 95.92-29.017 24.498 11.34 27.54 40.87 36.718 62.502 8.485 20.016 22.53 40.138 18.875 62.296-4.53 27.44-34.03 46.88-41.578 73.827-10.59 37.827 6.303 86.05 5.856 125.3zm-7.39 0c-.878 79.077-15.075 159.24-64.688 224.415-12.975 17.047-40.783 53.997-67.048 45.497-14.96-4.845-22.542-28.862-41.35-30.365-24.832-1.982-39.924 20.398-51.32 37.18-35.77 52.693-56.612 25.29-83.77-14.932-17.462-25.86-42.154-40.57-64.462-61.57C56.11 491.008 33.85 432.385 64.082 373.553c19.248-37.45 40.738-46.055 44.673-90.705 4.255-48.313 6.95-98.175 17.498-145.675 4.925-22.186 11.944-64.085 38.275-70.848C181.87 61.872 212.86 90.25 235.243 91.8c48.935 3.388 92.32-27.032 131.69-51.082 25.452-15.546 63.385-45.408 95.512-28.553C485.27 24.142 490.705 53.41 498.7 74.8c7.208 19.275 19.022 40.48 14.055 61.46-6.8 28.675-36.822 47.575-44.183 76.575-9.307 36.685 7.328 84.157 6.91 121.95zm-7.393 0c-.842 78.71-14.265 159.47-63.097 224.8-13.156 17.6-37.233 50.157-63.216 42.152-15.325-4.722-21.99-28.142-41.59-28.642-20.9-.538-39.875 21.745-49.085 37.655-32.487 56.122-56.71 24.817-83.894-16.317-15.97-24.165-38.315-39.765-58.448-60.015-44.958-45.203-68.86-100.848-34.318-158.26 19.61-32.598 42.028-46.873 43.936-87.336 2.412-51.132 3.385-103.687 13.35-154.02 4.52-22.822 10.572-61.437 37.892-65.557 12.895 1.08 24.31 6.71 34.25 16.885 15.59 6.502 31.47 8.258 47.645 5.265 43.165-2.745 79.563-28.075 115.26-49.832C428.603 3.87 473.385-3.91 496.86 72.927c6.162 20.18 15.85 42.72 9.928 63.86-7.983 28.525-37.586 46.983-45.213 76.095-9.555 36.473 6.918 84.26 6.515 121.903z"/><path d="M460.7 334.785c-.813 78.29-13.433 159.605-61.433 225.035-16.312 22.237-34.477 46.797-62.132 34.9-13.85-5.957-21.477-23.163-39.115-22.663-19.625.56-38.135 23.165-46.89 37.93-31.237 52.668-55.457 27.6-81.835-13.797-15.475-24.29-35.317-41.258-54.79-62.11-43.407-46.493-68.27-100.425-30.335-156.64 22.192-32.89 42.825-48.15 43.558-90.433.885-51.275.012-104.174 9.24-154.794 4.855-26.65 9.65-57.685 37.83-58.615a860.299 860.299 0 0 1 35.432 15.97c15.215 5.007 30.47 5.802 45.755 2.382 41.25-4.385 76.24-28.635 110.627-49.545 60.62-36.87 107.438-47.82 129.035 31.95 5.486 20.248 11.628 42.485 5.076 62.855-8.73 27.127-36.096 44.875-44.85 72.177-11.77 36.703 5.22 87.515 4.827 125.398zm-7.392 0c-.813 77.385-12.378 160.237-59.62 225.358-14.338 19.77-30.948 42.245-56.053 33.142-19.233-6.972-22.675-25.663-47.733-19.647-16.017 3.842-30.99 22.65-38.747 35.58-28.94 48.232-53.74 31.19-79.328-10.2-15.242-24.658-32.687-43.328-51.667-65.113-42.037-48.25-67.218-100.572-26.837-156.36 24.095-33.28 43.24-50.173 43.01-93.778-.268-50.93-2.75-103.647 5.742-154.067 5.103-30.295 8.705-53.652 37.858-52.04 28.115 1.553 48.53 19.403 80.497 14.657 39.337-5.834 72.907-28.96 106.015-49.074 56.233-34.163 106.8-49.816 127.28 28.577 5.375 20.58 8.572 45.485 1.285 65.573-9.78 26.952-37.07 44.672-46.105 72.077-12.03 36.48 4.798 87.612 4.403 125.315zm-7.39 0c-.78 76.795-11.476 160.185-57.783 225.272-5.162 7.258-16.785 25.05-26.627 28.83-17.275 6.646-12.39 3.428-28.553-2.097-17.922-6.125-22.665-20.282-44.825-13.545-15.135 4.6-29.35 22.832-36.95 35.21-25.845 42.1-50.623 36.155-75.21-4.225-15.632-25.673-31.365-46.93-50.26-70.313-40.72-50.387-65.752-101.19-23.755-157.3 25.34-33.852 43.323-52.725 42.325-97.297-1.123-49.927-5.453-102.475 2.787-151.995 5.535-33.27 7.673-49.377 37.96-45.865 28.783 3.335 47.81 17.12 79.82 11.05 37.43-7.103 69.593-29.103 101.425-48.425C416.21 13.777 468.525-7.938 489.59 64.505c6.66 22.905 8.813 50.6-.147 72.863-10.78 26.775-38.145 44.655-47.488 72.162-12.317 36.27 4.343 87.693 3.963 125.255zm-7.393 0c-.748 76.177-10.555 160.03-55.837 225.09-4.533 6.513-15.736 24.12-24.905 27.342-18.618 6.548-12.2.12-29.356-6.08-36.67-13.26-54.52-9.882-77.222 26.556-48.1 77.202-89.595-32.728-120.083-73.438C92.175 482.243 67.203 430.74 110.13 374.8c26.093-34.007 43.123-55.62 41.52-100.915-1.725-48.74-7.245-100.267.305-148.735 5.79-37.157 7.18-44.41 40.165-38.445 28.24 5.108 47.205 12.705 77.118 5.823 35.527-8.173 66.302-29.1 96.857-47.6C409.85 18.43 456.987-7.849 482.74 53.07c11.115 26.315 12.945 57.527 1.483 84.032-11.108 25.683-36.923 42.928-47.503 68.823-15.14 37.042 2.185 89.967 1.805 128.86zm-7.39 0c-.715 75.417-9.57 159.715-53.775 224.603-4.08 5.987-14.565 22.93-23.165 25.82-18.35 6.162-13.425-3.393-30.147-9.088-34.416-11.73-53.073-.217-72.816 30.805-48.507 76.228-86.67-31.237-114.792-72.235-37.492-54.66-61.817-105.013-18.543-162.463 29.22-38.784 42.67-60.977 40.3-111.39-2.135-45.385-7.947-92.664-1.554-137.912 6.39-45.245 10.704-37.257 48.815-28.653 60.477 13.658 110.687-18.42 160.455-48.505 40.242-24.327 85.302-51.59 112.452 2.498 14.065 28.025 13.767 60.282.602 88.362-12.042 25.698-38.097 43.145-49.1 69.303-15.502 36.87 1.633 90.025 1.268 128.855zm-7.392 0c-.678 74.575-8.546 159.222-51.58 223.88-21.106 31.705-22.065 22.163-52.356 13.118-32.062-9.578-51.292 7.794-68.547 34.38-48.605 74.867-83.93-29.59-109.642-70.798-35.846-57.445-59.44-106.957-16.303-166.315 28.77-39.588 42.078-64.382 39.3-114.84-2.405-43.67-8.965-89.24-3.25-132.873 6.075-46.365 13.405-30.18 51.653-23.377 56.45 10.043 107.102-23.81 152.71-51.35 36.54-22.063 80.534-50.263 108.132-2.36 16.688 28.963 14.98 62.745.042 91.645-13.23 25.597-39.39 43.545-50.837 69.977-15.91 36.74 1.03 90.088.678 128.913zm-7.39 0c-.646 73.655-7.495 158.532-49.255 222.91-20.87 32.175-20.64 17.34-51.393 10.392-29.822-6.735-49.02 14.025-64.42 37.31-48.327 73.055-81.355-27.77-104.635-69.095-33.973-60.315-56.855-109.355-14.205-170.894 27.98-40.38 41.355-67.713 38.273-118.106-2.523-41.25-11.003-85.975-4.698-127.157 6.797-44.38 16.5-23.305 54.512-19.172 53.238 5.794 102.225-27.745 145-53.518 31.2-18.797 71.636-46.39 101.558-10.968 23.65 27.998 17.528 69.298 1.748 98.398-14.276 26.333-43.546 45.978-53.793 74.288-13.033 35.997 1.637 87.714 1.308 125.612zm-7.396 0c-.582 69.93-4.532 161.03-46.772 221.672-21.185 30.413-19.087 12.583-50.457 8.556-27.685-3.556-46.33 18.692-60.418 39.617-47.69 70.82-78.873-25.648-99.785-67.112-31.86-63.19-54.09-112.22-12.192-176.076 26.97-41.1 40.55-70.887 37.247-121.122-2.575-39.162-11.585-81.755-5.955-120.91 5.845-40.632 22.5-16.903 57.365-16.057 50.517 1.22 97.01-29.688 137.347-55.058 27.788-17.478 68.698-43.883 97.063-13.748 26.028 27.646 18.323 70.113 1.79 99.016-15.108 26.412-45.195 46.732-55.88 75.375-13.442 36.04.967 87.797.647 125.847z"/><path d="M401.567 334.785c-.524 65.752-1.7 163.715-44.14 220.142-20.33 27.033-19.182 7.918-49.555 7.586-25.644-.286-43.312 22.04-56.537 41.354-46.653 68.125-76.595-23.444-95.103-64.842-29.502-65.992-51.484-115.475-10.187-181.727 27.208-43.646 39.593-78.258 35.745-130.358-2.167-29.357-16.147-78.89-6.482-107.385 1.787-5.273-.82-18.38 4.642-22.23.58-.407 48.488 8.095 50.375 8.06 49.535-.948 94.817-31.195 134.813-56.248 25.292-15.847 65.155-42.005 92.467-15.93 26.93 25.713 18.6 71.316 2.165 98.713-16.29 27.163-45.405 47.53-58.12 76.69-15.005 34.4.215 89.43-.082 126.175zm-7.392 0c-.463 60.252 1.252 167.62-41.338 218.317-19.162 22.806-21.214 3.923-48.704 7.456-24.035 3.087-39.843 24.292-52.77 42.544-45.458 64.166-74.335-21.082-90.6-62.252-27.076-68.543-48.343-119.39-8.128-187.733 25.88-43.985 38.817-80.737 34.763-132.4-1.905-24.235-17.748-77.977-7.555-100.805 4.695-10.517-.85-10.26 9.032-15.67 3.51-1.92 44.042 3.29 49.063 2.75 46.64-5.032 88.62-33.01 126.992-57.015 24.335-15.224 63.933-41.09 89.967-15.18 24.736 24.608 17.388 69.048.87 95.148-17.474 27.618-51.85 50.68-62.977 81.83-12.54 35.097 1.667 86.57 1.385 123.01zm-7.39 0c.272-36.728-13.668-88.26-.575-123.53 12.123-32.67 48.363-53.905 65.627-83.647 14.48-24.948 22.958-70.863-2.03-93.428-24.767-22.37-63.04 2.803-85.087 16.638-36.723 23.047-75.785 48.745-119.235 57.202-22.365 4.35-51.8-5.057-61.123 12.89-9.792 18.858 7.133 73.54 8.628 94.153 3.73 51.327-9.108 89.577-33.835 133.98-38.597 69.31-19.623 123.78 5.945 193.817 13.615 37.298 44.1 121.048 86.287 59.475 11.768-17.173 27.208-37.783 49.125-43.35 21.818-5.54 32.383 7.442 47.913-8.19 15.772-15.875 19.94-54.165 24.715-74.992 10.723-46.73 13.295-93.476 13.645-141.018z"/></g></svg>
